<svg id="visual" viewBox="0 0 540 960" width="540" height="960" version="1.1">
    <path d="M124 960L125 953C126 946 128 932 127.8 918.2C127.7 904.3 125.3 890.7 136.3 876.8C147.3 863 171.7 849 166.3 835C161 821 126 807 123 793C120 779 149 765 151.8 751.2C154.7 737.3 131.3 723.7 125.5 709.8C119.7 696 131.3 682 127.5 668C123.7 654 104.3 640 110.5 626C116.7 612 148.3 598 171.8 584.2C195.3 570.3 210.7 556.7 216.2 542.8C221.7 529 217.3 515 205 501C192.7 487 172.3 473 171.3 459C170.3 445 188.7 431 186.7 417.2C184.7 403.3 162.3 389.7 162.5 375.8C162.7 362 185.3 348 189.3 334C193.3 320 178.7 306 164.2 292C149.7 278 135.3 264 138.7 250.2C142 236.3 163 222.7 175 208.8C187 195 190 181 194.7 167C199.3 153 205.7 139 186.8 125C168 111 124 97 103.3 83.2C82.7 69.3 85.3 55.7 90.3 41.8C95.3 28 102.7 14 106.3 7L110 0L540 0L540 7C540 14 540 28 540 41.8C540 55.7 540 69.3 540 83.2C540 97 540 111 540 125C540 139 540 153 540 167C540 181 540 195 540 208.8C540 222.7 540 236.3 540 250.2C540 264 540 278 540 292C540 306 540 320 540 334C540 348 540 362 540 375.8C540 389.7 540 403.3 540 417.2C540 431 540 445 540 459C540 473 540 487 540 501C540 515 540 529 540 542.8C540 556.7 540 570.3 540 584.2C540 598 540 612 540 626C540 640 540 654 540 668C540 682 540 696 540 709.8C540 723.7 540 737.3 540 751.2C540 765 540 779 540 793C540 807 540 821 540 835C540 849 540 863 540 876.8C540 890.7 540 904.3 540 918.2C540 932 540 946 540 953L540 960Z"
          fill="#3dffc6"></path>
    <path d="M201 960L212 953C223 946 245 932 264 918.2C283 904.3 299 890.7 305 876.8C311 863 307 849 286.8 835C266.7 821 230.3 807 221.7 793C213 779 232 765 236 751.2C240 737.3 229 723.7 233.5 709.8C238 696 258 682 252.3 668C246.7 654 215.3 640 209.3 626C203.3 612 222.7 598 240.2 584.2C257.7 570.3 273.3 556.7 281 542.8C288.7 529 288.3 515 277 501C265.7 487 243.3 473 231.7 459C220 445 219 431 220 417.2C221 403.3 224 389.7 228.2 375.8C232.3 362 237.7 348 242.8 334C248 320 253 306 249.2 292C245.3 278 232.7 264 231.5 250.2C230.3 236.3 240.7 222.7 245.2 208.8C249.7 195 248.3 181 243.5 167C238.7 153 230.3 139 221.2 125C212 111 202 97 205.2 83.2C208.3 69.3 224.7 55.7 228.3 41.8C232 28 223 14 218.5 7L214 0L540 0L540 7C540 14 540 28 540 41.8C540 55.7 540 69.3 540 83.2C540 97 540 111 540 125C540 139 540 153 540 167C540 181 540 195 540 208.8C540 222.7 540 236.3 540 250.2C540 264 540 278 540 292C540 306 540 320 540 334C540 348 540 362 540 375.8C540 389.7 540 403.3 540 417.2C540 431 540 445 540 459C540 473 540 487 540 501C540 515 540 529 540 542.8C540 556.7 540 570.3 540 584.2C540 598 540 612 540 626C540 640 540 654 540 668C540 682 540 696 540 709.8C540 723.7 540 737.3 540 751.2C540 765 540 779 540 793C540 807 540 821 540 835C540 849 540 863 540 876.8C540 890.7 540 904.3 540 918.2C540 932 540 946 540 953L540 960Z"
          fill="#20be9e"></path>
    <path d="M320 960L322 953C324 946 328 932 334.8 918.2C341.7 904.3 351.3 890.7 346.2 876.8C341 863 321 849 309.7 835C298.3 821 295.7 807 312.5 793C329.3 779 365.7 765 372.8 751.2C380 737.3 358 723.7 346.7 709.8C335.3 696 334.7 682 335.5 668C336.3 654 338.7 640 339.5 626C340.3 612 339.7 598 341.7 584.2C343.7 570.3 348.3 556.7 355.8 542.8C363.3 529 373.7 515 376.7 501C379.7 487 375.3 473 369.7 459C364 445 357 431 360.3 417.2C363.7 403.3 377.3 389.7 377.7 375.8C378 362 365 348 362.8 334C360.7 320 369.3 306 359 292C348.7 278 319.3 264 307.3 250.2C295.3 236.3 300.7 222.7 312.5 208.8C324.3 195 342.7 181 340 167C337.3 153 313.7 139 304.7 125C295.7 111 301.3 97 304.8 83.2C308.3 69.3 309.7 55.7 318.8 41.8C328 28 345 14 353.5 7L362 0L540 0L540 7C540 14 540 28 540 41.8C540 55.7 540 69.3 540 83.2C540 97 540 111 540 125C540 139 540 153 540 167C540 181 540 195 540 208.8C540 222.7 540 236.3 540 250.2C540 264 540 278 540 292C540 306 540 320 540 334C540 348 540 362 540 375.8C540 389.7 540 403.3 540 417.2C540 431 540 445 540 459C540 473 540 487 540 501C540 515 540 529 540 542.8C540 556.7 540 570.3 540 584.2C540 598 540 612 540 626C540 640 540 654 540 668C540 682 540 696 540 709.8C540 723.7 540 737.3 540 751.2C540 765 540 779 540 793C540 807 540 821 540 835C540 849 540 863 540 876.8C540 890.7 540 904.3 540 918.2C540 932 540 946 540 953L540 960Z"
          fill="#1c8173"></path>
    <path d="M474 960L464.3 953C454.7 946 435.3 932 422.3 918.2C409.3 904.3 402.7 890.7 405.7 876.8C408.7 863 421.3 849 431.2 835C441 821 448 807 456 793C464 779 473 765 473.8 751.2C474.7 737.3 467.3 723.7 463.2 709.8C459 696 458 682 448 668C438 654 419 640 412.3 626C405.7 612 411.3 598 409.7 584.2C408 570.3 399 556.7 409.8 542.8C420.7 529 451.3 515 464.2 501C477 487 472 473 455.8 459C439.7 445 412.3 431 402.2 417.2C392 403.3 399 389.7 403.3 375.8C407.7 362 409.3 348 415.7 334C422 320 433 306 442.7 292C452.3 278 460.7 264 464 250.2C467.3 236.3 465.7 222.7 465.7 208.8C465.7 195 467.3 181 456.5 167C445.7 153 422.3 139 411.3 125C400.3 111 401.7 97 399.7 83.2C397.7 69.3 392.3 55.7 401.3 41.8C410.3 28 433.7 14 445.3 7L457 0L540 0L540 7C540 14 540 28 540 41.8C540 55.7 540 69.3 540 83.2C540 97 540 111 540 125C540 139 540 153 540 167C540 181 540 195 540 208.8C540 222.7 540 236.3 540 250.2C540 264 540 278 540 292C540 306 540 320 540 334C540 348 540 362 540 375.8C540 389.7 540 403.3 540 417.2C540 431 540 445 540 459C540 473 540 487 540 501C540 515 540 529 540 542.8C540 556.7 540 570.3 540 584.2C540 598 540 612 540 626C540 640 540 654 540 668C540 682 540 696 540 709.8C540 723.7 540 737.3 540 751.2C540 765 540 779 540 793C540 807 540 821 540 835C540 849 540 863 540 876.8C540 890.7 540 904.3 540 918.2C540 932 540 946 540 953L540 960Z"
          fill="#1d4844"></path>
</svg>