<svg id="visual" viewBox="0 0 960 540" width="960" height="540" xmlns="http://www.w3.org/2000/svg" xmlns:xlink="http://www.w3.org/1999/xlink" version="1.1"><path d="M0 479L7 460.7C14 442.3 28 405.7 41.8 391.7C55.7 377.7 69.3 386.3 83.2 399.2C97 412 111 429 125 426C139 423 153 400 167 399.3C181 398.7 195 420.3 208.8 419.7C222.7 419 236.3 396 250.2 398.8C264 401.7 278 430.3 292 432.2C306 434 320 409 334 389.3C348 369.7 362 355.3 375.8 368.5C389.7 381.7 403.3 422.3 417.2 434.2C431 446 445 429 459 430.2C473 431.3 487 450.7 501 458.7C515 466.7 529 463.3 542.8 446C556.7 428.7 570.3 397.3 584.2 398C598 398.7 612 431.3 626 444.2C640 457 654 450 668 426.8C682 403.7 696 364.3 709.8 369.5C723.7 374.7 737.3 424.3 751.2 429.5C765 434.7 779 395.3 793 385.8C807 376.3 821 396.7 835 409.8C849 423 863 429 876.8 420.2C890.7 411.3 904.3 387.7 918.2 391.5C932 395.3 946 426.7 953 442.3L960 458L960 541L953 541C946 541 932 541 918.2 541C904.3 541 890.7 541 876.8 541C863 541 849 541 835 541C821 541 807 541 793 541C779 541 765 541 751.2 541C737.3 541 723.7 541 709.8 541C696 541 682 541 668 541C654 541 640 541 626 541C612 541 598 541 584.2 541C570.3 541 556.7 541 542.8 541C529 541 515 541 501 541C487 541 473 541 459 541C445 541 431 541 417.2 541C403.3 541 389.7 541 375.8 541C362 541 348 541 334 541C320 541 306 541 292 541C278 541 264 541 250.2 541C236.3 541 222.7 541 208.8 541C195 541 181 541 167 541C153 541 139 541 125 541C111 541 97 541 83.2 541C69.3 541 55.7 541 41.8 541C28 541 14 541 7 541L0 541Z" fill="#48d7ce"></path><path d="M0 340L7 357.8C14 375.7 28 411.3 41.8 436.7C55.7 462 69.3 477 83.2 458.3C97 439.7 111 387.3 125 359.5C139 331.7 153 328.3 167 349.7C181 371 195 417 208.8 415.5C222.7 414 236.3 365 250.2 353.7C264 342.3 278 368.7 292 374.5C306 380.3 320 365.7 334 373.2C348 380.7 362 410.3 375.8 405.7C389.7 401 403.3 362 417.2 348.2C431 334.3 445 345.7 459 364.3C473 383 487 409 501 409.8C515 410.7 529 386.3 542.8 371.8C556.7 357.3 570.3 352.7 584.2 359.3C598 366 612 384 626 384.7C640 385.3 654 368.7 668 360.7C682 352.7 696 353.3 709.8 358C723.7 362.7 737.3 371.3 751.2 386.2C765 401 779 422 793 431.8C807 441.7 821 440.3 835 443.7C849 447 863 455 876.8 446C890.7 437 904.3 411 918.2 393.8C932 376.7 946 368.3 953 364.2L960 360L960 541L953 541C946 541 932 541 918.2 541C904.3 541 890.7 541 876.8 541C863 541 849 541 835 541C821 541 807 541 793 541C779 541 765 541 751.2 541C737.3 541 723.7 541 709.8 541C696 541 682 541 668 541C654 541 640 541 626 541C612 541 598 541 584.2 541C570.3 541 556.7 541 542.8 541C529 541 515 541 501 541C487 541 473 541 459 541C445 541 431 541 417.2 541C403.3 541 389.7 541 375.8 541C362 541 348 541 334 541C320 541 306 541 292 541C278 541 264 541 250.2 541C236.3 541 222.7 541 208.8 541C195 541 181 541 167 541C153 541 139 541 125 541C111 541 97 541 83.2 541C69.3 541 55.7 541 41.8 541C28 541 14 541 7 541L0 541Z" fill="#40cdc1"></path><path d="M0 359L7 358.5C14 358 28 357 41.8 375C55.7 393 69.3 430 83.2 443.2C97 456.3 111 445.7 125 430.3C139 415 153 395 167 390.8C181 386.7 195 398.3 208.8 404C222.7 409.7 236.3 409.3 250.2 423.8C264 438.3 278 467.7 292 480.8C306 494 320 491 334 470.5C348 450 362 412 375.8 413.2C389.7 414.3 403.3 454.7 417.2 464.7C431 474.7 445 454.3 459 451.8C473 449.3 487 464.7 501 453.7C515 442.7 529 405.3 542.8 408.7C556.7 412 570.3 456 584.2 477.7C598 499.3 612 498.7 626 478.7C640 458.7 654 419.3 668 400.7C682 382 696 384 709.8 381.7C723.7 379.3 737.3 372.7 751.2 382.8C765 393 779 420 793 419C807 418 821 389 835 374.8C849 360.7 863 361.3 876.8 380.7C890.7 400 904.3 438 918.2 454.8C932 471.7 946 467.3 953 465.2L960 463L960 541L953 541C946 541 932 541 918.2 541C904.3 541 890.7 541 876.8 541C863 541 849 541 835 541C821 541 807 541 793 541C779 541 765 541 751.2 541C737.3 541 723.7 541 709.8 541C696 541 682 541 668 541C654 541 640 541 626 541C612 541 598 541 584.2 541C570.3 541 556.7 541 542.8 541C529 541 515 541 501 541C487 541 473 541 459 541C445 541 431 541 417.2 541C403.3 541 389.7 541 375.8 541C362 541 348 541 334 541C320 541 306 541 292 541C278 541 264 541 250.2 541C236.3 541 222.7 541 208.8 541C195 541 181 541 167 541C153 541 139 541 125 541C111 541 97 541 83.2 541C69.3 541 55.7 541 41.8 541C28 541 14 541 7 541L0 541Z" fill="#38c2b4"></path><path d="M0 430L7 427C14 424 28 418 41.8 428.8C55.7 439.7 69.3 467.3 83.2 474.7C97 482 111 469 125 465.5C139 462 153 468 167 468.3C181 468.7 195 463.3 208.8 467.3C222.7 471.3 236.3 484.7 250.2 478.5C264 472.3 278 446.7 292 445.7C306 444.7 320 468.3 334 462.3C348 456.3 362 420.7 375.8 418.5C389.7 416.3 403.3 447.7 417.2 458.7C431 469.7 445 460.3 459 445.2C473 430 487 409 501 407.5C515 406 529 424 542.8 442.3C556.7 460.7 570.3 479.3 584.2 477.7C598 476 612 454 626 441.5C640 429 654 426 668 430.8C682 435.7 696 448.3 709.8 460.2C723.7 472 737.3 483 751.2 472.3C765 461.7 779 429.3 793 423.3C807 417.3 821 437.7 835 445.7C849 453.7 863 449.3 876.8 455.7C890.7 462 904.3 479 918.2 480.7C932 482.3 946 468.7 953 461.8L960 455L960 541L953 541C946 541 932 541 918.2 541C904.3 541 890.7 541 876.8 541C863 541 849 541 835 541C821 541 807 541 793 541C779 541 765 541 751.2 541C737.3 541 723.7 541 709.8 541C696 541 682 541 668 541C654 541 640 541 626 541C612 541 598 541 584.2 541C570.3 541 556.7 541 542.8 541C529 541 515 541 501 541C487 541 473 541 459 541C445 541 431 541 417.2 541C403.3 541 389.7 541 375.8 541C362 541 348 541 334 541C320 541 306 541 292 541C278 541 264 541 250.2 541C236.3 541 222.7 541 208.8 541C195 541 181 541 167 541C153 541 139 541 125 541C111 541 97 541 83.2 541C69.3 541 55.7 541 41.8 541C28 541 14 541 7 541L0 541Z" fill="#30b8a7"></path><path d="M0 481L7 472.5C14 464 28 447 41.8 450.5C55.7 454 69.3 478 83.2 478.2C97 478.3 111 454.7 125 454.3C139 454 153 477 167 484C181 491 195 482 208.8 469.7C222.7 457.3 236.3 441.7 250.2 433.5C264 425.3 278 424.7 292 428.8C306 433 320 442 334 449C348 456 362 461 375.8 462.5C389.7 464 403.3 462 417.2 460C431 458 445 456 459 462.5C473 469 487 484 501 480.5C515 477 529 455 542.8 443.2C556.7 431.3 570.3 429.7 584.2 439C598 448.3 612 468.7 626 472.7C640 476.7 654 464.3 668 457.8C682 451.3 696 450.7 709.8 455C723.7 459.3 737.3 468.7 751.2 469.8C765 471 779 464 793 466.8C807 469.7 821 482.3 835 484.8C849 487.3 863 479.7 876.8 470.8C890.7 462 904.3 452 918.2 446.7C932 441.3 946 440.7 953 440.3L960 440L960 541L953 541C946 541 932 541 918.2 541C904.3 541 890.7 541 876.8 541C863 541 849 541 835 541C821 541 807 541 793 541C779 541 765 541 751.2 541C737.3 541 723.7 541 709.8 541C696 541 682 541 668 541C654 541 640 541 626 541C612 541 598 541 584.2 541C570.3 541 556.7 541 542.8 541C529 541 515 541 501 541C487 541 473 541 459 541C445 541 431 541 417.2 541C403.3 541 389.7 541 375.8 541C362 541 348 541 334 541C320 541 306 541 292 541C278 541 264 541 250.2 541C236.3 541 222.7 541 208.8 541C195 541 181 541 167 541C153 541 139 541 125 541C111 541 97 541 83.2 541C69.3 541 55.7 541 41.8 541C28 541 14 541 7 541L0 541Z" fill="#29ae9a"></path><path d="M0 529L7 526.3C14 523.7 28 518.3 41.8 511.8C55.7 505.3 69.3 497.7 83.2 491.8C97 486 111 482 125 478.2C139 474.3 153 470.7 167 468.8C181 467 195 467 208.8 470.7C222.7 474.3 236.3 481.7 250.2 493.2C264 504.7 278 520.3 292 523.3C306 526.3 320 516.7 334 509.5C348 502.3 362 497.7 375.8 495C389.7 492.3 403.3 491.7 417.2 498.5C431 505.3 445 519.7 459 522.7C473 525.7 487 517.3 501 509.2C515 501 529 493 542.8 497.2C556.7 501.3 570.3 517.7 584.2 518.5C598 519.3 612 504.7 626 493.3C640 482 654 474 668 475.8C682 477.7 696 489.3 709.8 498.7C723.7 508 737.3 515 751.2 520.3C765 525.7 779 529.3 793 520C807 510.7 821 488.3 835 485.7C849 483 863 500 876.8 510C890.7 520 904.3 523 918.2 515.3C932 507.7 946 489.3 953 480.2L960 471L960 541L953 541C946 541 932 541 918.2 541C904.3 541 890.7 541 876.8 541C863 541 849 541 835 541C821 541 807 541 793 541C779 541 765 541 751.2 541C737.3 541 723.7 541 709.8 541C696 541 682 541 668 541C654 541 640 541 626 541C612 541 598 541 584.2 541C570.3 541 556.7 541 542.8 541C529 541 515 541 501 541C487 541 473 541 459 541C445 541 431 541 417.2 541C403.3 541 389.7 541 375.8 541C362 541 348 541 334 541C320 541 306 541 292 541C278 541 264 541 250.2 541C236.3 541 222.7 541 208.8 541C195 541 181 541 167 541C153 541 139 541 125 541C111 541 97 541 83.2 541C69.3 541 55.7 541 41.8 541C28 541 14 541 7 541L0 541Z" fill="#22a48d"></path></svg>